<?xml version="1.0" standalone="no"?>
<!DOCTYPE svg PUBLIC "-//W3C//DTD SVG 20010904//EN"
 "http://www.w3.org/TR/2001/REC-SVG-20010904/DTD/svg10.dtd">
<svg version="1.0" xmlns="http://www.w3.org/2000/svg"
 width="192.000000pt" height="192.000000pt" viewBox="0 0 192.000000 192.000000"
 preserveAspectRatio="xMidYMid meet">

<g transform="translate(0.000000,192.000000) scale(0.100000,-0.100000)"
fill="#000000" stroke="none">
<path d="M805 1905 c-499 -79 -855 -548 -796 -1050 52 -450 396 -794 846 -846
605 -71 1127 451 1056 1056 -63 549 -562 927 -1106 840z m-387 -632 c-3 -24
-8 -29 -43 -33 l-40 -5 -3 -124 -3 -123 138 123 c135 122 137 124 105 127 -28
3 -32 7 -32 33 l0 29 120 0 120 0 0 -30 c0 -28 -3 -30 -37 -30 -23 0 -48 -9
-70 -26 -67 -51 -238 -209 -238 -220 0 -6 62 -75 137 -154 127 -133 141 -144
180 -149 38 -5 43 -9 43 -31 l0 -25 -135 0 -135 0 0 25 c0 22 5 25 38 28 20 2
37 6 36 10 0 4 -53 63 -119 131 -148 156 -152 155 -148 -18 l3 -116 40 -5 c35
-4 40 -8 40 -30 l0 -25 -132 -1 -133 -1 0 28 c0 25 4 28 38 31 l37 3 3 273 2
272 -40 0 c-38 0 -40 2 -40 30 l0 30 136 0 135 0 -3 -27z m1074 17 c121 -19
168 -65 168 -161 0 -72 -26 -113 -90 -143 l-49 -23 29 -28 c30 -29 44 -61 76
-173 18 -64 39 -87 69 -76 9 4 21 17 26 30 5 14 17 24 28 24 26 0 30 -9 19
-48 -17 -64 -102 -91 -165 -52 -38 23 -52 48 -88 161 -15 48 -37 99 -50 115
-21 27 -28 29 -92 29 l-68 0 -3 -105 c-4 -142 -2 -148 51 -152 37 -3 42 -6 42
-28 l0 -25 -137 -1 -138 -1 0 28 c0 26 3 28 43 31 l42 3 0 270 0 270 -42 3
c-40 3 -43 5 -43 33 l0 29 158 0 c86 0 183 -4 214 -10z m-504 -582 c18 -18 14
-56 -7 -68 -26 -14 -64 -13 -79 2 -15 15 -15 51 0 66 16 16 70 16 86 0z"/>
<path d="M1305 1228 c-3 -8 -4 -61 -3 -119 l3 -104 72 -3 c99 -4 149 11 173
51 37 60 19 140 -37 167 -15 7 -67 15 -115 18 -70 3 -89 2 -93 -10z"/>
</g>
</svg>
